@startuml

class Bootstrap

class Catalina

class StandardServer

class StandardService
class Connector

class Http11NioProtocol
class CoyoteAdapter
class NioEndpoint

class MapperListener
class Mapper

Connector *-- Http11NioProtocol
Connector *-- CoyoteAdapter
CoyoteAdapter ..> StandardEngine
Http11NioProtocol *-- NioEndpoint

StandardService *-- MapperListener
StandardService *-- Mapper

MapperListener *-- Mapper


interface Container
class ContainerBase
Container <|.. ContainerBase
class StandardEngine
class StandardHost
class StandardContext
class StandardWrapper
class StandardPipeline

Bootstrap ..> Catalina

Catalina *-- StandardServer
StandardServer "1" *-- "*" StandardService
StandardService "1" *-- "*" Connector
StandardService *-- StandardEngine
StandardEngine "1" *-- "*" StandardHost
StandardHost "1" *-- "*" StandardContext
StandardContext "1" *-- "*" StandardWrapper


ContainerBase <|-- StandardEngine
ContainerBase <|-- StandardHost
ContainerBase <|-- StandardContext
ContainerBase <|-- StandardWrapper
ContainerBase *-- StandardPipeline




footer
图 1 Tomcat architecture
endfooter

@enduml
